<?xml version="1.0" encoding="UTF-8" standalone="no"?>
<!-- Uploaded to: SVG Repo, www.svgrepo.com, Generator: SVG Repo Mixer Tools -->

<svg
   fill="#000000"
   width="632.75787"
   height="632.67371"
   viewBox="-1 0 15.027999 15.026001"
   class="cf-icon-svg"
   version="1.1"
   id="svg1"
   sodipodi:docname="gear-svgrepo-com.svg"
   inkscape:version="1.4.2 (f4327f4, 2025-05-13)"
   xmlns:inkscape="http://www.inkscape.org/namespaces/inkscape"
   xmlns:sodipodi="http://sodipodi.sourceforge.net/DTD/sodipodi-0.dtd"
   xmlns="http://www.w3.org/2000/svg"
   xmlns:svg="http://www.w3.org/2000/svg">
  <defs
     id="defs1" />
  <sodipodi:namedview
     id="namedview1"
     pagecolor="#505050"
     bordercolor="#ffffff"
     borderopacity="1"
     inkscape:showpageshadow="0"
     inkscape:pageopacity="0"
     inkscape:pagecheckerboard="1"
     inkscape:deskcolor="#505050"
     inkscape:zoom="1.00875"
     inkscape:cx="316.72862"
     inkscape:cy="312.76332"
     inkscape:window-width="1920"
     inkscape:window-height="1009"
     inkscape:window-x="-8"
     inkscape:window-y="-8"
     inkscape:window-maximized="1"
     inkscape:current-layer="svg1" />
  <path
     d="m 14.028,6.793 v 1.44 A 0.587,0.587 0 0 1 13.56,8.789 l -1.182,0.204 a 0.463,0.463 0 0 1 -0.114,0.006 5.902,5.902 0 0 1 -0.634,1.528 0.455,0.455 0 0 1 0.078,0.084 l 0.691,0.98 a 0.586,0.586 0 0 1 -0.062,0.725 l -1.02,1.02 a 0.586,0.586 0 0 1 -0.724,0.061 l -0.98,-0.69 a 0.444,0.444 0 0 1 -0.085,-0.078 5.908,5.908 0 0 1 -1.544,0.637 0.502,0.502 0 0 1 0,0.175 L 7.802,14.494 A 0.667,0.667 0 0 1 7.169,15.026 H 5.859 A 0.667,0.667 0 0 1 5.226,14.494 L 5.044,13.441 a 0.495,0.495 0 0 1 0,-0.175 A 5.908,5.908 0 0 1 3.5,12.629 0.444,0.444 0 0 1 3.415,12.706 l -0.98,0.691 A 0.586,0.586 0 0 1 1.71,13.335 L 0.69,12.315 A 0.586,0.586 0 0 1 0.629,11.592 L 1.32,10.612 A 0.454,0.454 0 0 1 1.397,10.527 5.901,5.901 0 0 1 0.764,8.999 0.466,0.466 0 0 1 0.65,8.993 L -0.532,8.789 A 0.586,0.586 0 0 1 -1,8.233 V 6.793 A 0.586,0.586 0 0 1 -0.532,6.237 L 0.65,6.033 A 0.437,0.437 0 0 1 0.764,6.028 5.912,5.912 0 0 1 1.397,4.5 0.466,0.466 0 0 1 1.32,4.415 L 0.629,3.435 A 0.587,0.587 0 0 1 0.69,2.711 L 1.71,1.691 A 0.587,0.587 0 0 1 2.435,1.629 L 3.415,2.32 A 0.444,0.444 0 0 1 3.5,2.398 5.903,5.903 0 0 1 5.028,1.764 0.433,0.433 0 0 1 5.033,1.65 L 5.237,0.468 A 0.586,0.586 0 0 1 5.793,0 H 7.235 A 0.586,0.586 0 0 1 7.791,0.468 L 7.995,1.65 A 0.448,0.448 0 0 1 8,1.764 5.908,5.908 0 0 1 9.528,2.398 0.444,0.444 0 0 1 9.613,2.32 l 0.98,-0.691 a 0.586,0.586 0 0 1 0.724,0.062 l 1.02,1.02 a 0.586,0.586 0 0 1 0.062,0.724 l -0.691,0.98 A 0.467,0.467 0 0 1 11.63,4.5 a 5.902,5.902 0 0 1 0.634,1.528 0.434,0.434 0 0 1 0.114,0.005 l 1.182,0.204 a 0.587,0.587 0 0 1 0.468,0.556 z m -4.955,0.72 a 2.559,2.559 0 1 0 -2.56,2.56 2.559,2.559 0 0 0 2.56,-2.56 z"
     id="path1" />
</svg>
