<?xml version="1.0" encoding="UTF-8" standalone="no"?>
<!-- Uploaded to: SVG Repo, www.svgrepo.com, Generator: SVG Repo Mixer Tools -->

<svg
   width="666.66656"
   height="533.33252"
   viewBox="0 0 19.999997 15.999976"
   fill="none"
   version="1.1"
   id="svg5"
   sodipodi:docname="eye-hide-svgrepo-com.svg"
   inkscape:version="1.4.2 (f4327f4, 2025-05-13)"
   xmlns:inkscape="http://www.inkscape.org/namespaces/inkscape"
   xmlns:sodipodi="http://sodipodi.sourceforge.net/DTD/sodipodi-0.dtd"
   xmlns="http://www.w3.org/2000/svg"
   xmlns:svg="http://www.w3.org/2000/svg">
  <defs
     id="defs5" />
  <sodipodi:namedview
     id="namedview5"
     pagecolor="#505050"
     bordercolor="#ffffff"
     borderopacity="1"
     inkscape:showpageshadow="0"
     inkscape:pageopacity="0"
     inkscape:pagecheckerboard="1"
     inkscape:deskcolor="#505050"
     inkscape:zoom="1.00875"
     inkscape:cx="333.58116"
     inkscape:cy="266.171"
     inkscape:window-width="1920"
     inkscape:window-height="1009"
     inkscape:window-x="-8"
     inkscape:window-y="-8"
     inkscape:window-maximized="1"
     inkscape:current-layer="svg5" />
  <path
     d="M 3.7071108,15.7071 17.707101,1.70711 c 0.3905,-0.39053 0.3905,-1.02369 0,-1.41422 -0.3905,-0.39052 -1.0237,-0.39052 -1.4142,0 L 2.2928908,14.2929 c -0.39052,0.3905 -0.39052,1.0237 0,1.4142 0.39053,0.3905 1.02369,0.3905 1.41422,0 z"
     fill="#000000"
     id="path1" />
  <path
     d="m 10.000001,1 c 1.2011,0 2.394,0.21361 3.5362,0.63535 l -1.5994,1.59947 C 11.295301,3.0777 10.645801,3 10.000001,3 7.0731908,3 4.0686208,4.59614 2.0917308,7.9487 c 0.65458,1.15 1.43005,2.0973 2.28274,2.8484 l -1.41602,1.416 C 1.8866608,11.248 0.93477077,10.037 0.16029077,8.5876 c -0.21668,-0.4055 -0.21392,-0.9032 0.00974,-1.3069 C 2.4579608,3.15186 6.1877708,1 10.000001,1 Z"
     fill="#000000"
     id="path2" />
  <path
     d="m 10.000001,5 c 0.056,0 0.1117,0.00154 0.167,0.00457 L 7.0045708,8.167 C 7.0015408,8.1117 7.0000008,8.056 7.0000008,8 c 0,-1.6569 1.3431,-3 3.0000002,-3 z"
     fill="#000000"
     id="path3" />
  <path
     d="m 12.995401,7.833 -3.1624002,3.1624 c 0.0553,0.0031 0.111,0.0046 0.1670002,0.0046 1.6569,0 3,-1.3431 3,-3 0,-0.056 -0.0015,-0.1117 -0.0046,-0.167 z"
     fill="#000000"
     id="path4" />
  <path
     d="M 10.000001,13 C 9.3550008,13 8.7061008,12.9216 8.0654008,12.763 l -1.59733,1.5974 C 7.6081208,14.7849 8.7998008,15 10.000001,15 c 3.8372,0 7.5882,-2.1987 9.8397,-6.4124 0.2167,-0.4055 0.2139,-0.9032 -0.0097,-1.3069 -0.7757,-1.39981 -1.7172,-2.5724 -2.7713,-3.51093 l -1.4166,1.41658 c 0.8416,0.73141 1.6104,1.65025 2.2662,2.76235 -1.9488,3.4237 -4.9693,5.0513 -7.9083,5.0513 z"
     fill="#000000"
     id="path5" />
</svg>
