<?xml version="1.0" encoding="UTF-8" standalone="no"?>
<!-- Uploaded to: SVG Repo, www.svgrepo.com, Generator: SVG Repo Mixer Tools -->

<svg
   width="396.41684"
   height="209.48282"
   viewBox="0 0 37.659599 19.900867"
   version="1.1"
   enable-background="new 0 0 76.00 76.00"
   xml:space="preserve"
   id="svg1"
   sodipodi:docname="horizontalClearFullIcon.svg"
   inkscape:version="1.4.2 (f4327f4, 2025-05-13)"
   xmlns:inkscape="http://www.inkscape.org/namespaces/inkscape"
   xmlns:sodipodi="http://sodipodi.sourceforge.net/DTD/sodipodi-0.dtd"
   xmlns="http://www.w3.org/2000/svg"
   xmlns:svg="http://www.w3.org/2000/svg"><defs
   id="defs1" /><sodipodi:namedview
   id="namedview1"
   pagecolor="#505050"
   bordercolor="#ffffff"
   borderopacity="1"
   inkscape:showpageshadow="0"
   inkscape:pageopacity="0"
   inkscape:pagecheckerboard="1"
   inkscape:deskcolor="#505050"
   inkscape:zoom="0.17832349"
   inkscape:cx="-1303.8103"
   inkscape:cy="-496.28907"
   inkscape:window-width="1920"
   inkscape:window-height="1009"
   inkscape:window-x="-8"
   inkscape:window-y="-8"
   inkscape:window-maximized="1"
   inkscape:current-layer="svg1" />
	<path
   fill="#000000"
   fill-opacity="1"
   stroke-width="0.2"
   stroke-linejoin="round"
   d="M 1.5243006,12.953194 C 1.0601623,12.566658 0.68908514,12.154856 0.43848114,11.700743 -0.42429216,10.137333 0.01120064,8.2327747 1.5243006,6.9476737 l 7.0499,-5.8709658 C 9.6779006,0.2923295 10.609601,0 12.609601,0 h 21 c 2.7614,0 4.05,1.9075432 4.05,3.795893 v 12.309082 c 0,1.888349 -1.2886,3.795893 -4.05,3.795893 h -21 c -2,0 -2.9317004,-0.292116 -4.0354004,-1.076495 z m 31.7934004,1.94694 -4.9497,-4.9498003 4.9497,-4.9497 -2.5784,-2.5785 -4.9497,4.9498 -4.9498,-4.9498 -2.5784,2.5785 4.9497,4.9497 -4.9497,4.9498003 2.5784,2.5784 4.9498,-4.9498 4.9497,4.9498 z"
   id="path1"
   sodipodi:nodetypes="ssccsssssscsccccccccccccc" />
</svg>
