<?xml version="1.0" encoding="UTF-8" standalone="no"?>
<!-- Generated by IcoMoon.io -->

<svg
   version="1.1"
   width="959.54053"
   height="959.51428"
   viewBox="0 0 959.54053 959.51428"
   id="svg1"
   sodipodi:docname="infoCircleClearIcon - copia.svg"
   inkscape:version="1.4.2 (f4327f4, 2025-05-13)"
   xmlns:inkscape="http://www.inkscape.org/namespaces/inkscape"
   xmlns:sodipodi="http://sodipodi.sourceforge.net/DTD/sodipodi-0.dtd"
   xmlns="http://www.w3.org/2000/svg"
   xmlns:svg="http://www.w3.org/2000/svg">
  <defs
     id="defs1" />
  <sodipodi:namedview
     id="namedview1"
     pagecolor="#505050"
     bordercolor="#ffffff"
     borderopacity="1"
     inkscape:showpageshadow="0"
     inkscape:pageopacity="0"
     inkscape:pagecheckerboard="1"
     inkscape:deskcolor="#505050"
     inkscape:zoom="0.098510743"
     inkscape:cx="-1304.4263"
     inkscape:cy="-228.40149"
     inkscape:window-width="1920"
     inkscape:window-height="1009"
     inkscape:window-x="-8"
     inkscape:window-y="-8"
     inkscape:window-maximized="1"
     inkscape:current-layer="svg1" />
  <g
     id="icomoon-ignore"
     transform="translate(0.02625641,-32.741744)" />
  <path
     d="m 0.02625641,479.25826 q 0,-97.28 37.88799959,-186.368 37.888,-89.088 102.400004,-152.576 64.512,-63.488004 152.576,-102.400004 88.064,-38.91199959 187.392,-37.88799959 97.28,0 186.368,37.88799959 89.088,37.888 152.576,102.400004 63.488,64.512 102.4,152.576 38.912,88.064 37.888,186.368 0,97.28 -37.888,186.368 -37.888,89.088 -102.4,153.6 -64.512,64.512 -152.576,102.4 -88.064,37.888 -186.368,37.888 -98.304,0 -187.392,-37.888 -89.088,-37.888 -152.576,-102.4 -63.488004,-64.512 -102.400004,-153.6 -38.91199959,-89.088 -37.88799959,-186.368 z m 119.80800359,0 q 0,72.704 28.672,140.288 28.672,67.584 76.8,114.688 48.128,47.104 114.688,76.8 66.56,29.696 140.288,28.672 73.728,-1.024 139.264,-28.672 65.536,-27.648 114.688,-76.8 49.152,-49.152 76.8,-114.688 27.648,-65.536 28.672,-140.288 1.024,-74.752 -28.672,-139.264 -29.696,-64.512 -76.8,-114.688 -47.104,-50.176 -114.688,-76.8 -67.584,-26.624 -139.264,-28.672 -71.68,-2.048 -140.288,28.672 -68.608,30.72 -114.688,76.8 -46.08,46.08 -76.8,114.688 -30.72,68.608 -28.672,139.264 z m 287.744,-174.08 q 0,-28.672 20.48,-46.08 20.48,-17.408 52.224,-17.408 32.768,0 52.224,17.408 19.456,17.408 19.456,46.08 0,28.672 -19.456,47.104 -19.456,18.432 -52.224,17.408 -32.768,0 -52.224,-17.408 -19.456,-17.408 -20.48,-47.104 z m 5.12,411.648 v -306.176 h 135.168 v 306.176 z"
     id="path1" />
  <path
     style="fill:#ffffff;stroke:#000000;stroke-width:8.6285;stroke-linejoin:bevel;paint-order:stroke fill markers"
     d="M 464.04956,123.42007 C 390.26024,121.00941 320.70591,155.3086 261.28377,195.92565 167.70839,270.58291 107.59836,392.27609 123.78686,513.10037 134.02802,647.22292 228.51665,766.96158 353.28478,814.76764 516.7128,881.72394 722.02369,800.81956 798.5824,642.11154 857.52749,527.27306 850.8974,379.98592 772.32216,275.6679 705.8752,172.57933 585.23251,117.81052 464.04956,123.42007 Z m 18.5378,118.66171 c 45.39732,-4.95395 84.60228,43.81807 64.87236,86.33457 -21.9649,59.97843 -126.55001,56.16403 -137.65551,-9.33829 -9.80766,-35.28994 15.87279,-72.77561 53.13507,-75.25155 6.56537,-1.19795 12.97343,-1.76067 19.64808,-1.74473 z m 67.11276,321.16977 c 0,51.31433 0,102.62867 0,153.94297 -46.75093,0 -93.50186,0 -140.25279,0 0.88387,-101.69684 1.77276,-203.39366 2.66667,-305.09043 45.86216,-0.92281 91.7242,-1.85136 137.58612,-2.78563 0,51.31103 0,102.62206 0,153.93309 z"
     id="path5" />
</svg>
