<?xml version="1.0" encoding="UTF-8" standalone="no"?>
<!-- Uploaded to: SVG Repo, www.svgrepo.com, Generator: SVG Repo Mixer Tools -->

<svg
   height="774"
   width="673.2785"
   version="1.1"
   id="_x32_"
   viewBox="0 0 430.89823 495.36"
   xml:space="preserve"
   sodipodi:docname="bell-2-svgrepo-com.svg"
   inkscape:version="1.4.2 (f4327f4, 2025-05-13)"
   xmlns:inkscape="http://www.inkscape.org/namespaces/inkscape"
   xmlns:sodipodi="http://sodipodi.sourceforge.net/DTD/sodipodi-0.dtd"
   xmlns="http://www.w3.org/2000/svg"
   xmlns:svg="http://www.w3.org/2000/svg"><defs
   id="defs2"><inkscape:path-effect
   effect="fillet_chamfer"
   id="path-effect8"
   is_visible="true"
   lpeversion="1"
   nodesatellites_param="F,0,0,1,0,0,0,1 @ F,0,0,1,0,0,0,1 @ F,0,0,1,0,0,0,1 @ F,0,0,1,0,0,0,1 @ F,0,0,1,0,0,0,1 @ F,0,0,1,0,0,0,1 @ F,0,0,1,0,0,0,1 @ F,0,0,1,0,0,0,1 @ F,0,0,1,0,0,0,1 @ F,0,0,1,0,0,0,1 @ F,0,0,1,0,0,0,1"
   radius="0"
   unit="px"
   method="auto"
   mode="F"
   chamfer_steps="1"
   flexible="false"
   use_knot_distance="true"
   apply_no_radius="true"
   apply_with_radius="true"
   only_selected="false"
   hide_knots="false" /><inkscape:path-effect
   effect="powerstroke"
   message=""
   id="path-effect7"
   is_visible="true"
   lpeversion="1.3"
   scale_width="1"
   interpolator_type="CubicBezierJohan"
   interpolator_beta="0.2"
   start_linecap_type="zerowidth"
   end_linecap_type="zerowidth"
   offset_points="0,12.075472"
   linejoin_type="extrp_arc"
   miter_limit="4"
   not_jump="false"
   sort_points="true" /><inkscape:path-effect
   effect="bspline"
   id="path-effect6"
   is_visible="true"
   lpeversion="1.3"
   weight="33.333333"
   steps="2"
   helper_size="0"
   apply_no_weight="true"
   apply_with_weight="true"
   only_selected="false"
   uniform="false" /><inkscape:path-effect
   effect="powerstroke"
   message=""
   id="path-effect5"
   is_visible="true"
   lpeversion="1.3"
   scale_width="1"
   interpolator_type="CubicBezierJohan"
   interpolator_beta="0.2"
   start_linecap_type="zerowidth"
   end_linecap_type="zerowidth"
   offset_points="0,12.075472"
   linejoin_type="extrp_arc"
   miter_limit="4"
   not_jump="false"
   sort_points="true" /><inkscape:path-effect
   effect="powerstroke"
   message=""
   id="path-effect4"
   is_visible="true"
   lpeversion="1.3"
   scale_width="1"
   interpolator_type="CubicBezierJohan"
   interpolator_beta="0.2"
   start_linecap_type="zerowidth"
   end_linecap_type="zerowidth"
   offset_points="0,12.075472"
   linejoin_type="extrp_arc"
   miter_limit="4"
   not_jump="false"
   sort_points="true" />
	
	
</defs><sodipodi:namedview
   id="namedview2"
   pagecolor="#505050"
   bordercolor="#ffffff"
   borderopacity="1"
   inkscape:showpageshadow="0"
   inkscape:pageopacity="0"
   inkscape:pagecheckerboard="1"
   inkscape:deskcolor="#505050"
   inkscape:zoom="0.12609375"
   inkscape:cx="-1399.7522"
   inkscape:cy="186.36927"
   inkscape:window-width="1920"
   inkscape:window-height="1009"
   inkscape:window-x="-8"
   inkscape:window-y="-8"
   inkscape:window-maximized="1"
   inkscape:current-layer="_x32_" />
<style
   type="text/css"
   id="style1">
	.st0{fill:#000000;}
</style>
<path
   class="st0"
   d="m 152.89494,442.658 c 5.237,30.54 31.518,52.702 62.49,52.702 30.98,0 57.269,-22.162 62.506,-52.702 l 0.32,-1.86 h -125.636 z"
   id="path1"
   sodipodi:nodetypes="cscccc" /><path
   d="m 215.39147,0 c -29.9039,0 -48.18063,9.88218 -35.15875,35.3875 -71.755,16.238 -123.61,81.002 -123.61,154.81 v 50.19375 c 0,63.28 -18.3555,78.5205 -39.6075,96.1675 -23.3694504,14.64668 -15.8687504,49.15757 -15.8687504,74.165 H 429.64272 c 1.37108,-28.52197 5.54824,-56.29406 -15.86625,-74.165 -21.252,-17.648 -39.60875,-32.8875 -39.60875,-96.1675 V 231.42 c -0.55603,0.01 -1.11313,0.015 -1.67125,0.015 -53.01176,0 -96.81125,-43.79823 -96.81125,-96.81 0,-28.76343 12.89452,-54.81468 33.15875,-72.62875 C 291.77522,49.47715 272.05974,40.25357 250.55772,35.3875 263.58676,9.83682 245.27333,0 215.39147,0 Z"
   id="path30" />
<path
   d="m 372.49522,76.2225 a 58.402653,58.402653 0 0 0 -58.4025,58.4025 58.402653,58.402653 0 0 0 58.4025,58.4025 58.402653,58.402653 0 0 0 58.4025,-58.4025 58.402653,58.402653 0 0 0 -58.4025,-58.4025 z"
   style="baseline-shift:baseline;display:inline;overflow:visible;vector-effect:none;stroke-linecap:round;stroke-miterlimit:10;paint-order:stroke fill markers;enable-background:accumulate;stop-color:#000000;stop-opacity:1"
   id="path28" /></svg>
