<?xml version="1.0" encoding="UTF-8" standalone="no"?>
<!-- Uploaded to: SVG Repo, www.svgrepo.com, Generator: SVG Repo Mixer Tools -->

<svg
   height="834.98035"
   width="859.38965"
   version="1.1"
   id="Capa_1"
   viewBox="0 0 326.13515 316.87191"
   xml:space="preserve"
   sodipodi:docname="reloadIcon.svg"
   inkscape:version="1.4.2 (f4327f4, 2025-05-13)"
   xmlns:inkscape="http://www.inkscape.org/namespaces/inkscape"
   xmlns:sodipodi="http://sodipodi.sourceforge.net/DTD/sodipodi-0.dtd"
   xmlns="http://www.w3.org/2000/svg"
   xmlns:svg="http://www.w3.org/2000/svg"><defs
   id="defs1" /><sodipodi:namedview
   id="namedview1"
   pagecolor="#505050"
   bordercolor="#ffffff"
   borderopacity="1"
   inkscape:showpageshadow="0"
   inkscape:pageopacity="0"
   inkscape:pagecheckerboard="1"
   inkscape:deskcolor="#505050"
   inkscape:zoom="0.504375"
   inkscape:cx="310.28501"
   inkscape:cy="312.26766"
   inkscape:window-width="1920"
   inkscape:window-height="1009"
   inkscape:window-x="-8"
   inkscape:window-y="-8"
   inkscape:window-maximized="1"
   inkscape:current-layer="Capa_1" />
<path
   style="fill:#000000;fill-opacity:1;stroke-width:1.07425"
   d="M 263.97242,32.659278 C 236.06133,11.291418 202.8617,-0.00107392 167.96798,7.6601888e-8 h -0.002 C 160.93501,7.6601888e-8 153.81168,0.47267008 146.79577,1.4051161 104.8409,6.9772381 67.565584,28.553503 41.8395,62.161341 26.186637,82.607497 15.663306,106.75659 11.407137,131.9982 c -0.740156,4.38722 2.217248,8.54456 6.604475,9.28472 l 21.185239,3.57294 c 2.109822,0.35451 4.26906,-0.14073 6.010416,-1.37933 1.741355,-1.23861 2.918731,-3.11747 3.274307,-5.22514 3.243154,-19.22474 11.268857,-37.63305 23.212344,-53.234355 19.622207,-25.632624 48.051092,-42.090098 80.054002,-46.339822 5.36479,-0.713301 10.80801,-1.074248 16.17602,-1.074248 26.59515,0 51.90442,8.614392 73.19602,24.912878 25.63154,19.622208 42.08902,48.051107 46.33875,80.051877 4.25079,31.99861 -4.21536,63.73833 -23.83649,89.37095 -23.03294,30.08646 -58.06416,47.34102 -96.11186,47.34102 -26.73373,0 -52.08383,-8.58967 -73.312029,-24.83874 C 87.162009,249.05467 80.845433,243.0378 75.263642,236.443 l 39.676258,7.0041 c 2.10123,0.37276 4.26798,-0.10846 6.02008,-1.33315 1.7521,-1.22571 2.94237,-3.09597 3.31406,-5.20043 l 3.73516,-21.15731 c 0.77345,-4.38186 -2.15172,-8.56068 -6.5325,-9.33414 L 26.266132,189.61332 c -0.466224,-0.0828 -0.933522,-0.12246 -1.400819,-0.12246 -1.64145,0 -3.256045,0.50167 -4.620341,1.4556 -1.751024,1.22572 -2.942364,3.09598 -3.312979,5.20043 L 0.12431454,291.35747 c -0.774533,4.38185 2.15064386,8.56067 6.53250086,9.33521 l 21.1573076,3.73516 c 4.388301,0.77667 8.561754,-2.15172 9.334137,-6.53358 l 7.073922,-40.06944 c 7.935468,9.84226 17.04831,18.75959 27.122605,26.47161 27.838054,21.31093 61.081713,32.57549 96.139793,32.57549 49.86979,0 95.79173,-22.62688 125.99206,-62.07754 25.725,-33.60892 36.82413,-75.22313 31.25201,-117.17787 C 319.15546,95.658532 297.57812,58.38536 263.97242,32.659278 Z"
   id="path1" />
</svg>
