<?xml version="1.0" encoding="UTF-8" standalone="no"?>
<svg
   viewBox="0 0 449.04547 448.80539"
   fill="#ffffff"
   version="1.1"
   id="svg8"
   sodipodi:docname="steamFolderIcon.svg"
   width="449.04547"
   height="448.80539"
   inkscape:version="1.4.2 (f4327f4, 2025-05-13)"
   xml:space="preserve"
   xmlns:inkscape="http://www.inkscape.org/namespaces/inkscape"
   xmlns:sodipodi="http://sodipodi.sourceforge.net/DTD/sodipodi-0.dtd"
   xmlns="http://www.w3.org/2000/svg"
   xmlns:svg="http://www.w3.org/2000/svg"><sodipodi:namedview
     id="namedview8"
     pagecolor="#505050"
     bordercolor="#ffffff"
     borderopacity="1"
     inkscape:showpageshadow="0"
     inkscape:pageopacity="0"
     inkscape:pagecheckerboard="1"
     inkscape:deskcolor="#505050"
     inkscape:zoom="0.08"
     inkscape:cx="-3631.25"
     inkscape:cy="-531.25"
     inkscape:window-width="1920"
     inkscape:window-height="1009"
     inkscape:window-x="-8"
     inkscape:window-y="-8"
     inkscape:window-maximized="1"
     inkscape:current-layer="svg8" /><path
     d="M 185.27595,0 C 86.965075,0 6.5165279,76.484433 0.16267009,173.18945 c 0.0262789,0.0441 0.0519165,0.0888 0.078125,0.13282 8.8449e-4,-0.0151 0.001953,-0.0234 0.001953,-0.0234 L 99.928295,214.38481 c 2.724885,-1.84476 5.635255,-3.39944 8.683595,-4.63868 7.00316,-2.88126 14.37752,-4.17413 21.72851,-3.83789 l 45.39258,-65.94336 -0.0156,-0.91601 h -0.0586 c 0,-38.92318 31.61319,-70.576174 70.4668,-70.576174 25.77619,0.05374 48.31059,13.913659 60.5957,34.572264 h 44.77539 C 321.13677,41.970696 258.10763,0 185.27595,0 Z m 60.91211,92.039062 c -20.42036,0.05589 -38.47592,13.270978 -44.70313,32.718748 1.84993,-1.11917 13.11552,-14.83606 19.6211,-17.68945 4.78129,-1.94781 9.91577,-3.2402 15.23242,-3.76172 0.40676,-0.0399 0.81443,-0.0699 1.22266,-0.0898 l 2.92578,-0.14258 c 0.40595,-0.0197 0.81232,-0.0294 1.21875,-0.0293 h 34.61719 C 267.87644,95.961036 257.2118,92.066068 246.18806,92.039062 Z M 128.54743,217.6543 c -4.9596,-0.0413 -9.84779,0.85846 -14.42187,2.59765 l 23.76953,9.82617 c 14.90641,6.22815 21.9505,23.35371 15.74024,38.26758 -6.19455,14.90878 -23.30627,21.9681 -38.21094,15.76367 l -22.939454,-9.50781 c 4.187875,8.78331 11.459094,15.72017 20.429684,19.49024 20.21524,8.4235 43.47305,-1.12541 51.90235,-21.41602 h -0.0449 c 4.06972,-9.77427 4.09158,-20.59725 0.0566,-30.41211 -4.03493,-9.81485 -11.57034,-17.49089 -21.42578,-21.5664 -4.86394,-2.02037 -9.89586,-3.00167 -14.85547,-3.04297 z M 7.7974357,239.63086 C 30.963741,315.6671 101.66469,371.02734 185.27595,371.02734 c 0.64057,0 1.28089,-0.003 1.91992,-0.01 l -0.0937,-2.58789 c -0.0106,-0.30066 -0.0158,-0.6015 -0.0156,-0.90235 V 250.7146 l -7.44532,5.32422 c 0.18768,7.26563 -1.1635,14.48881 -3.96484,21.19531 -10.93424,26.21657 -41.03672,38.62256 -67.26758,27.72266 C 92.396579,298.29012 81.498482,284.4225 78.020092,268.60742 Z"
     style="fill:#000000"
     id="path17"
     sodipodi:nodetypes="sccccccccccccscccscccccsccccccccscsscsccccccccc" /><path
     d="m 246.12556,68.472656 c -38.85361,0 -70.4668,31.652994 -70.4668,70.576174 h 0.0586 l 0.0156,0.91601 -45.39258,65.94336 c -7.35099,-0.33624 -14.72535,0.95663 -21.72851,3.83789 a 47.190148,47.190148 0 0 0 -8.683595,4.63868 L 0.24274822,173.29883 c 0,0 -2.30726162,37.94921 7.30468748,66.22851 l 70.4726563,29.08008 c 3.47839,15.81508 14.376487,29.6827 30.388668,36.34961 a 51.480162,51.480162 0 0 0 67.26758,-27.72266 51.538135,51.538135 0 0 0 3.96484,-21.19531 l 7.44532,-5.32422 v -93.05078 c 0,-6.05249 1.00276,-11.96588 2.86133,-17.47265 a 25.0025,25.0025 0 0 1 0.45703,-1.2461 l 1.15429,-2.90234 a 25.0025,25.0025 0 0 1 9.92578,-11.28516 47.074202,47.074202 0 0 1 44.70313,-32.718748 47.074202,47.074202 0 0 1 30.13477,11.005858 h 30.39843 C 294.43615,82.386315 271.90175,68.526397 246.12556,68.472656 Z M 128.54743,217.6543 c 4.95961,0.0413 9.99153,1.0226 14.85547,3.04297 9.85544,4.07551 17.39085,11.75155 21.42578,21.5664 4.03494,9.81486 4.01308,20.63784 -0.0566,30.41211 h 0.0449 c -8.4293,20.29061 -31.68711,29.83952 -51.90235,21.41602 A 39.653638,39.653638 0 0 1 92.484936,274.60156 l 22.939454,9.50781 a 29.21847,29.21847 0 0 0 38.21094,-15.76367 29.276443,29.276443 0 0 0 -15.74024,-38.26758 l -23.76953,-9.82617 c 4.57408,-1.73919 9.46227,-2.63896 14.42187,-2.59765 z"
     id="path16" /><defs
     id="defs7" /><path
     d="m 241.70564,128.04492 -2.92774,0.14258 c -2.88872,0.28336 -5.65545,0.98021 -8.24023,2.0332 l 108.04687,42.01953 3.2793,1.41211 c 17.12182,8.12259 28.19531,25.43571 28.19531,44.59766 v 186.24609 h 29.61914 l 2.85352,-0.13476 c 15.01993,-1.43532 26.76758,-14.0885 26.76758,-29.48438 v -58.02343 l 18.86133,-75.44922 0.49023,-2.36914 c 0.26146,-1.59037 0.39453,-3.20178 0.39453,-4.81641 v -76.55469 l -0.13476,-2.85351 C 447.4754,139.79019 434.8222,128.04492 419.42634,128.04492 Z m -26.91602,17.23828 -1.15429,2.90235 c -1.00434,2.97578 -1.54883,6.16388 -1.54883,9.47851 v 209.86328 l 0.1289,3.57813 c 1.37083,18.9476 13.54895,35.56867 31.47071,42.48047 l 86.09375,33.20898 3.00976,0.98438 c 6.03092,1.63212 12.09369,1.25293 17.52344,-0.68164 V 218.25 l -0.13281,-2.79492 c -1.04532,-11.06922 -8.24373,-20.72353 -18.75196,-24.81055 z"
     style="baseline-shift:baseline;display:inline;overflow:visible;vector-effect:none;fill:#212121;stroke-linecap:round;stroke-linejoin:round;paint-order:stroke fill markers;enable-background:accumulate;stop-color:#000000;stop-opacity:1"
     id="path14" /></svg>
