<?xml version="1.0" encoding="UTF-8" standalone="no"?>


<svg
   width="686.60229"
   height="563.31"
   viewBox="0 0 20.598069 16.8993"
   fill="none"
   version="1.1"
   id="svg2"
   xml:space="preserve"
   xmlns="http://www.w3.org/2000/svg"
   xmlns:svg="http://www.w3.org/2000/svg"><defs
     id="defs2" /><path
     fill-rule="evenodd"
     clip-rule="evenodd"
     d="m 10,0.69921875 c -3.9289847,0 -7.7560011,2.22228065 -10.09179687,6.43749995 -0.27270631,0.4922272 -0.27592779,1.09735 -0.01171875,1.5917969 C 2.1950982,13.030313 6.0443566,15.300781 10,15.300781 c 3.955643,0 7.804949,-2.27048 10.103516,-6.5722654 C 20.367767,8.234036 20.364442,7.6289672 20.091797,7.1367187 17.755944,2.9215255 13.928955,0.69921875 10,0.69921875 Z m 0,2.60156255 c 2.774388,0 5.630557,1.4796079 7.560547,4.6503906 C 15.656306,11.190388 12.785329,12.699219 10,12.699219 7.2146396,12.699219 4.343684,11.190388 2.4394531,7.9511719 4.3694338,4.7803893 7.2256011,3.3007813 10,3.3007813 Z"
     fill="#000000"
     id="path2"
     transform="translate(0.29903788,0.44965001)" /><path
     fill-rule="evenodd"
     clip-rule="evenodd"
     d="m 10.299035,5.3306911 c -1.7226018,0 -3.11896,1.396358 -3.11896,3.1189593 0,1.7226016 1.3963582,3.1189586 3.11896,3.1189586 1.722601,0 3.118959,-1.396357 3.118959,-3.1189586 0,-1.7226013 -1.396358,-3.1189593 -3.118959,-3.1189593 z"
     fill="#000000"
     id="path1-9"
     style="stroke-width:1.03965" /></svg>
