<?xml version="1.0" encoding="UTF-8" standalone="no"?>
<!-- Uploaded to: SVG Repo, www.svgrepo.com, Generator: SVG Repo Mixer Tools -->

<svg
   width="666.66656"
   height="466.66666"
   viewBox="0 0 19.999997 14"
   fill="none"
   version="1.1"
   id="svg2"
   sodipodi:docname="view-eye-svgrepo-com.svg"
   inkscape:version="1.4.2 (f4327f4, 2025-05-13)"
   xmlns:inkscape="http://www.inkscape.org/namespaces/inkscape"
   xmlns:sodipodi="http://sodipodi.sourceforge.net/DTD/sodipodi-0.dtd"
   xmlns="http://www.w3.org/2000/svg"
   xmlns:svg="http://www.w3.org/2000/svg">
  <defs
     id="defs2" />
  <sodipodi:namedview
     id="namedview2"
     pagecolor="#505050"
     bordercolor="#ffffff"
     borderopacity="1"
     inkscape:showpageshadow="0"
     inkscape:pageopacity="0"
     inkscape:pagecheckerboard="1"
     inkscape:deskcolor="#505050"
     inkscape:zoom="1.00875"
     inkscape:cx="333.58116"
     inkscape:cy="233.45725"
     inkscape:window-width="1920"
     inkscape:window-height="1009"
     inkscape:window-x="-8"
     inkscape:window-y="-8"
     inkscape:window-maximized="1"
     inkscape:current-layer="svg2" />
  <path
     fill-rule="evenodd"
     clip-rule="evenodd"
     d="M 10.000001,4 C 8.3431008,4 7.0000008,5.3431 7.0000008,7 c 0,1.6569 1.3431,3 3.0000002,3 1.6569,0 3,-1.3431 3,-3 0,-1.6569 -1.3431,-3 -3,-3 z M 9.0000008,7 c 0,-0.5523 0.4477,-1 1.0000002,-1 0.5523,0 1,0.4477 1,1 0,0.5523 -0.4477,1 -1,1 C 9.4477008,8 9.0000008,7.5523 9.0000008,7 Z"
     fill="#000000"
     id="path1" />
  <path
     fill-rule="evenodd"
     clip-rule="evenodd"
     d="M 19.830001,6.2807 C 17.542001,2.15186 13.812201,0 10.000001,0 6.1877708,0 2.4579608,2.15186 0.17003077,6.2807 c -0.22366,0.4037 -0.22642,0.9014 -0.00974,1.3069 C 2.4118308,11.8013 6.1628008,14 10.000001,14 c 3.8372,0 7.5882,-2.1987 9.8397,-6.4124 0.2167,-0.4055 0.2139,-0.9032 -0.0097,-1.3069 z M 10.000001,12 C 7.0609708,12 4.0405208,10.3724 2.0917308,6.9487 4.0686208,3.59614 7.0731908,2 10.000001,2 c 2.9268,0 5.9314,1.59614 7.9083,4.9487 -1.9488,3.4237 -4.9693,5.0513 -7.9083,5.0513 z"
     fill="#000000"
     id="path2" />
</svg>
