<?xml version="1.0" encoding="UTF-8" standalone="no"?>
<!-- Uploaded to: SVG Repo, www.svgrepo.com, Generator: SVG Repo Mixer Tools -->

<svg
   width="367.99911"
   height="367.99911"
   viewBox="0 -0.5 11.499972 11.499972"
   fill="none"
   version="1.1"
   id="svg1"
   sodipodi:docname="XIcon.svg"
   inkscape:version="1.4.2 (f4327f4, 2025-05-13)"
   xmlns:inkscape="http://www.inkscape.org/namespaces/inkscape"
   xmlns:sodipodi="http://sodipodi.sourceforge.net/DTD/sodipodi-0.dtd"
   xmlns="http://www.w3.org/2000/svg"
   xmlns:svg="http://www.w3.org/2000/svg">
  <defs
     id="defs1" />
  <sodipodi:namedview
     id="namedview1"
     pagecolor="#505050"
     bordercolor="#ffffff"
     borderopacity="1"
     inkscape:showpageshadow="0"
     inkscape:pageopacity="0"
     inkscape:pagecheckerboard="1"
     inkscape:deskcolor="#505050"
     inkscape:zoom="0.2521875"
     inkscape:cx="569.02107"
     inkscape:cy="580.91698"
     inkscape:window-width="1920"
     inkscape:window-height="1009"
     inkscape:window-x="-8"
     inkscape:window-y="-8"
     inkscape:window-maximized="1"
     inkscape:current-layer="svg1" />
  <path
     d="m 0.2196675,9.7196975 c -0.29289,0.2928995 -0.29289,0.7677005 0,1.0606005 0.29289,0.292899 0.76777,0.292899 1.06066,0 z m 6.06063,-3.9394 c 0.2929,-0.2929 0.2929,-0.7677 0,-1.0606 -0.2929,-0.2929 -0.7677,-0.2929 -1.0606,0 z m -1.0606,-1.0606 c -0.2929,0.2929 -0.2929,0.7677 0,1.0606 0.2929,0.2929 0.7677,0.2929 1.0606,0 z m 6.0606005,-3.93937 c 0.292899,-0.29289 0.292899,-0.76777 0,-1.06066 -0.2929,-0.29289 -0.767701,-0.29289 -1.060601,0 z m -5.0000005,3.93937 c -0.2929,-0.2929 -0.7677,-0.2929 -1.0606,0 -0.2929,0.2929 -0.2929,0.7677 0,1.0606 z m 3.9393995,6.0606005 c 0.2929,0.292899 0.767701,0.292899 1.060601,0 0.292899,-0.2929 0.292899,-0.767701 0,-1.0606005 z M 5.2196975,5.7802975 c 0.2929,0.2929 0.7677,0.2929 1.0606,0 0.2929,-0.2929 0.2929,-0.7677 0,-1.0606 z m -3.93937,-6.06063 c -0.29289,-0.29289 -0.76777,-0.29289 -1.06066,0 -0.29289,0.29289 -0.29289,0.76777 0,1.06066 z m 0,11.0606305 4.99997,-5.0000005 -1.0606,-1.0606 -5.00003,5 z m 4.99997,-5.0000005 5.0000005,-4.99997 -1.060601,-1.06066 -4.9999995,5.00003 z m -1.0606,0 4.9999995,5.0000005 1.060601,-1.0606005 -5.0000005,-5 z m 1.0606,-1.0606 -4.99997,-5.00003 -1.06066,1.06066 5.00003,4.99997 z"
     fill="#000000"
     id="path1" />
</svg>
