<?xml version="1.0" encoding="UTF-8" standalone="no"?>


<svg
   version="1.1"
   width="878"
   height="1024"
   viewBox="0 0 878 1024"
   id="svg1"
   xmlns="http://www.w3.org/2000/svg"
   xmlns:svg="http://www.w3.org/2000/svg">
  <defs
     id="defs1" />
  <g
     id="icomoon-ignore" />
  <path
     d="M838.656 217.088q16.384 16.384 27.648 43.008t11.264 51.2v657.408q0 23.552-15.36 38.912t-38.912 16.384h-768q-23.552 0-38.912-16.384t-16.384-38.912v-913.408q0-23.552 16.384-38.912t38.912-16.384h512q22.528 0 50.176 11.264t43.008 27.648zM584.704 77.824v215.040h215.040q-5.12-17.408-12.288-23.552l-179.2-179.2q-6.144-7.168-23.552-12.288zM804.864 951.296v-585.728h-237.568q-23.552 0-38.912-16.384t-16.384-37.888v-238.592h-439.296v878.592h732.16zM219.136 456.704q0-7.168 5.12-12.288t13.312-5.12h402.432q8.192 0 13.312 5.12t5.12 12.288v36.864q0 8.192-5.12 13.312t-13.312 5.12h-402.432q-8.192 0-13.312-5.12t-5.12-13.312v-36.864zM640 584.704q8.192 0 13.312 5.12t5.12 13.312v36.864q0 8.192-5.12 13.312t-13.312 5.12h-402.432q-8.192 0-13.312-5.12t-5.12-13.312v-36.864q0-8.192 5.12-13.312t13.312-5.12h402.432zM640 731.136q8.192 0 13.312 5.12t5.12 13.312v36.864q0 8.192-5.12 13.312t-13.312 5.12h-402.432q-8.192 0-13.312-5.12t-5.12-13.312v-36.864q0-8.192 5.12-13.312t13.312-5.12h402.432z"
     id="path1" />
</svg>
