<?xml version="1.0" encoding="UTF-8" standalone="no"?>
<!-- Uploaded to: SVG Repo, www.svgrepo.com, Generator: SVG Repo Mixer Tools -->

<svg
   fill="#000000"
   height="800"
   width="729.41248"
   version="1.1"
   id="Layer_1"
   viewBox="0 0 466.82398 512"
   xml:space="preserve"
   sodipodi:docname="paint-roller-svgrepo-com.svg"
   inkscape:version="1.4.2 (f4327f4, 2025-05-13)"
   xmlns:inkscape="http://www.inkscape.org/namespaces/inkscape"
   xmlns:sodipodi="http://sodipodi.sourceforge.net/DTD/sodipodi-0.dtd"
   xmlns="http://www.w3.org/2000/svg"
   xmlns:svg="http://www.w3.org/2000/svg"><defs
   id="defs2" /><sodipodi:namedview
   id="namedview2"
   pagecolor="#505050"
   bordercolor="#ffffff"
   borderopacity="1"
   inkscape:showpageshadow="0"
   inkscape:pageopacity="0"
   inkscape:pagecheckerboard="1"
   inkscape:deskcolor="#505050"
   inkscape:zoom="1.00875"
   inkscape:cx="364.31227"
   inkscape:cy="400"
   inkscape:window-width="1920"
   inkscape:window-height="1009"
   inkscape:window-x="-8"
   inkscape:window-y="-8"
   inkscape:window-maximized="1"
   inkscape:current-layer="Layer_1" />
<g
   id="g2"
   transform="translate(-22.588)">
	<g
   id="g1">
		<path
   d="M 466.824,60.235 H 399.059 V 22.588 C 399.059,10.114 388.947,0 376.471,0 H 45.176 C 32.703,0 22.588,10.114 22.588,22.588 v 120.471 c 0,12.475 10.115,22.588 22.588,22.588 H 376.47 c 12.476,0 22.588,-10.113 22.588,-22.588 v -37.647 h 45.176 v 92.854 l -236.05,27.77 c -11.377,1.339 -19.95,10.981 -19.95,22.435 v 67.765 h -22.588 c -12.473,0 -22.588,10.114 -22.588,22.588 v 150.588 c 0,12.475 10.115,22.588 22.588,22.588 H 256 c 12.478,0 22.588,-10.114 22.588,-22.588 V 338.824 c 0,-12.475 -10.112,-22.588 -22.588,-22.588 h -22.588 v -47.678 l 236.052,-27.77 c 11.375,-1.339 19.948,-10.981 19.948,-22.435 V 82.824 c 0,-12.475 -10.112,-22.589 -22.588,-22.589 z"
   id="path1" />
	</g>
</g>
</svg>
