<?xml version="1.0" encoding="UTF-8" standalone="no"?>


<svg
   fill="#000000"
   height="800"
   width="729.41248"
   version="1.1"
   id="Layer_1"
   viewBox="0 0 466.82398 512"
   xml:space="preserve"
   xmlns="http://www.w3.org/2000/svg"
   xmlns:svg="http://www.w3.org/2000/svg"><defs
   id="defs2" />
<g
   id="g2"
   transform="translate(-22.588)">
	<g
   id="g1">
		<path
   d="M 466.824,60.235 H 399.059 V 22.588 C 399.059,10.114 388.947,0 376.471,0 H 45.176 C 32.703,0 22.588,10.114 22.588,22.588 v 120.471 c 0,12.475 10.115,22.588 22.588,22.588 H 376.47 c 12.476,0 22.588,-10.113 22.588,-22.588 v -37.647 h 45.176 v 92.854 l -236.05,27.77 c -11.377,1.339 -19.95,10.981 -19.95,22.435 v 67.765 h -22.588 c -12.473,0 -22.588,10.114 -22.588,22.588 v 150.588 c 0,12.475 10.115,22.588 22.588,22.588 H 256 c 12.478,0 22.588,-10.114 22.588,-22.588 V 338.824 c 0,-12.475 -10.112,-22.588 -22.588,-22.588 h -22.588 v -47.678 l 236.052,-27.77 c 11.375,-1.339 19.948,-10.981 19.948,-22.435 V 82.824 c 0,-12.475 -10.112,-22.589 -22.588,-22.589 z"
   id="path1" />
	</g>
</g>
</svg>
